# xmcd CD database file generated by Grip 3.2.0
# 
# Track frame offsets:
#       150
#       40760
#       67330
#       79792
#       102850
#       141955
# 
# Disc length: 2181 seconds
# 
# Revision: 1
# Processed by: cddbd v1.5.2PL0 Copyright (c) Steve Scherf et al.
# Submitted via: Grip 3.2.0
# 
DISCID=50088306
DTITLE=Ron Carter - Parade
DYEAR=1979
DGENRE=Jazz
TTITLE0=Parade
TTITLE1=A Theme In 3/4
TTITLE2=Sometimes I Feel Like A Motherless Child
TTITLE3=Tinderbox
TTITLE4=Gypsy
TTITLE5=G.J.T.
EXTD=YEAR: 1979
EXTT0=
EXTT1=
EXTT2=
EXTT3=
EXTT4=
EXTT5=
PLAYORDER=
